<svg xmlns="http://www.w3.org/2000/svg" viewBox="0 0 1024 768"><g font-family="Source Sans Pro" font-size="32" font-weight="400" style="line-height:1;font-variant-ligatures:none;text-align:center" text-anchor="middle"/><g font-family="Brandmark1 Bold Color" font-size="72" font-weight="700" style="line-height:1;font-variant-ligatures:normal;text-align:center" text-anchor="middle"><path fill="#153048" d="M290.038 410.371a28.526 28.526 0 0 1-9.094-6.135 28.627 28.627 0 0 1-6.135-9.094c-1.49-3.528-2.253-7.28-2.253-11.14s.755-7.61 2.253-11.139a28.512 28.512 0 0 1 6.135-9.094 28.639 28.639 0 0 1 9.094-6.135 28.365 28.365 0 0 1 11.14-2.254 28.6 28.6 0 0 1 23.79 12.702l-9.389 6.294a17.303 17.303 0 0 0-14.401-7.69c-4.622 0-8.972 1.8-12.248 5.069s-5.07 7.625-5.07 12.248c0 4.623 1.8 8.972 5.07 12.248a17.201 17.201 0 0 0 12.248 5.068 17.33 17.33 0 0 0 14.365-7.638l9.368 6.328a28.605 28.605 0 0 1-23.733 12.616c-3.86 0-7.61-.756-11.14-2.254z" aria-label="C" class="prefix__c1"/><path fill="#153048" d="m330.959 359.628 11.305-3.6v45.436h25.275v10.729h-36.58v-52.565z" aria-label="L" class="prefix__c1"/><path fill="#153048" d="M387.755 410.249a28.338 28.338 0 0 1-9.03-6.084 28.343 28.343 0 0 1-8.317-20.09 28.338 28.338 0 0 1 8.317-20.09 28.337 28.337 0 0 1 20.09-8.317 28.33 28.33 0 0 1 20.09 8.317 28.315 28.315 0 0 1 6.084 9.03c1.484 3.506 2.233 7.23 2.233 11.06s-.75 7.553-2.233 11.06a28.32 28.32 0 0 1-6.085 9.03 28.33 28.33 0 0 1-20.09 8.316 28.25 28.25 0 0 1-11.06-2.232zm-1.037-38.264a16.986 16.986 0 0 0-5.012 12.097c0 4.572 1.778 8.864 5.012 12.097a16.986 16.986 0 0 0 12.096 5.011c4.574 0 8.865-1.778 12.098-5.011a16.99 16.99 0 0 0 5.012-12.097 16.99 16.99 0 0 0-5.012-12.097 17.002 17.002 0 0 0-12.098-5.012 17.002 17.002 0 0 0-12.096 5.012z" aria-label="O" class="prefix__c1"/><path fill="#153048" d="M449.262 410.84a22.132 22.132 0 0 1-7.057-4.76 22.245 22.245 0 0 1-4.76-7.057 22.098 22.098 0 0 1-1.75-8.648v-34.347h11.306v34.347c0 6.012 4.897 10.909 10.91 10.909s10.908-4.897 10.908-10.91v-34.346h11.305v34.347c0 2.995-.59 5.904-1.75 8.648a22.118 22.118 0 0 1-4.76 7.057 22.26 22.26 0 0 1-7.056 4.76 22.097 22.097 0 0 1-8.648 1.749c-2.996 0-5.904-.59-8.648-1.75z" aria-label="U" class="prefix__c1"/><path fill="#153048" d="M491.038 412.265v-56.237h18.433c3.816 0 7.517.727 11.003 2.167a28.1 28.1 0 0 1 9.021 5.963 27.812 27.812 0 0 1 6.107 8.936 27.93 27.93 0 0 1 2.239 11.018c0 3.83-.756 7.539-2.24 11.023a27.939 27.939 0 0 1-6.1 8.957 28.14 28.14 0 0 1-9.022 5.993 28.57 28.57 0 0 1-11.01 2.181h-18.432zm18.433-11.305c4.587 0 8.879-1.743 12.097-4.918 3.204-3.161 4.968-7.403 4.968-11.931 0-4.522-1.764-8.742-4.96-11.889-3.212-3.154-7.51-4.89-12.105-4.89h-7.129v33.628h7.129z" aria-label="D" class="prefix__c1"/><path fill="#153048" d="m544.272 403.905-1.52-1.628 7.439-8.9 1.922 2.413a16.023 16.023 0 0 0 5.674 4.471c2.074.98 4.313 1.49 6.473 1.49 2.55 0 4.724-.561 6.121-1.576 1.26-.915 1.872-2.139 1.872-3.752 0-1.757-.54-2.844-1.915-3.874-1.585-1.18-4.148-2.146-7.122-3.269-.252-.093-.51-.194-.777-.295-4.083-1.52-8.007-3.082-11.155-5.587-1.828-1.455-3.182-3.061-4.14-4.904-1.065-2.045-1.605-4.37-1.605-6.913 0-4.428 1.915-8.525 5.386-11.536 3.37-2.916 7.898-4.521 12.76-4.521 6.278 0 12.406 2.26 17.713 6.53l1.916 1.55-6.907 8.985-2.015-1.656c-3.55-2.93-7.453-4.608-10.707-4.608-3.025 0-6.568 1.31-6.625 5.004-.022 1.65.77 2.549 1.972 3.392 1.722 1.21 4.457 2.253 7.353 3.362l.028.007c.454.18.908.36 1.362.533 4.096 1.606 7.97 3.118 10.908 5.538 3.47 2.865 5.163 6.638 5.163 11.542 0 2.657-.568 5.127-1.692 7.344-1.059 2.075-2.57 3.882-4.515 5.372-3.542 2.708-8.316 4.206-13.45 4.206-7.59 0-14.66-3.096-19.917-8.72z" aria-label="S" class="prefix__c1"/><path fill="#153048" d="M627.825 361.313c-3.398-3.507-8.36-5.285-14.753-5.285h-20.378v56.165h11.305v-45.436h8.424c2.787 0 5.019.662 6.445 1.922 1.412 1.232 2.125 3.111 2.125 5.566 0 2.377-.692 4.22-2.053 5.48-1.599 1.476-4.126 2.225-7.524 2.225h-1.9v10.729h2.476c2.923 0 5.623-.353 8.013-1.044 2.55-.742 4.76-1.872 6.582-3.363a15.41 15.41 0 0 0 4.407-5.868c1.008-2.34 1.52-5.033 1.52-8.015 0-5.385-1.621-9.907-4.688-13.076z" aria-label="P" class="prefix__c1"/><path fill="#153048" d="m641.21 359.628 11.305-3.6v56.165H641.21v-52.565z" aria-label="I" class="prefix__c1"/><g stroke-miterlimit="2" stroke-width="0" aria-label="K"><path fill="#153048" d="m695.464 356.028-19.622 23.705v-23.705h-11.305v56.166h11.305v-15.778l34.318-40.388z" class="prefix__c1"/><path fill="#58a29d" d="M700.071 398.354h-14.038l10.058 13.84h14.092z" class="prefix__c3"/></g><path fill="#153048" d="M715.085 412.193h36.362v-10.514h-36.362v10.514zm0-22.61h36.362v-10.73h-36.362v10.73zm0-33.555v10.729h36.362v-10.729h-36.362z" aria-label="E" class="prefix__c1"/></g></svg>